Charlie st. Cloud (2010) 1080p MKV AC3+DTS NLSubs

Verenigde Staten / Canada
Drama
99 minuten

geregisseerd door Burr Steers
met Zac Efron, Kim Basinger en Amanda Crew

Charlie St. Cloud is een jongeman die de dood van zijn jonge broer moeilijk kan verwerken.
Hij krijgt een baan bij de begraafplaats waar zijn broer ligt begraven.
Als hij de geest van zijn broer ziet, besluit Charlie er elke dag naartoe te komen om met hem te praten.
Alles verandert als er een vrouw in Charlie's leven stapt.

PLOT

Charlie St. Cloud is a young man overcome by grief at the death of his younger brother.
So much so that he takes a job as caretaker of the cemetery in which his brother is buried.
Charlie has a special lasting bond with his brother though, as he can see him.
Charlie meets up with his brother (Sam) each night to play catch and talk... 
 
http://www.youtube.com/watch?v=oHvU5l5xn0g

MM:    http://www.moviemeter.nl/film/62746

IMDB:    http://www.imdb.com/title/tt1438254/

Dvd Info:

ViDEO......: 1920x800 @ 9937 kbps  
AUDiO 1....: DTS
AUDIO 2....: AC3
RUNTiME....: 100 mins              
SUBTiTLES..: Dutch (Selectable)
Subbers....: Fast Gollums Twilight Release Team (THANKS)
BEWERKING..: NLUPPER

Enjoy

Player Info

General
Complete name                    : Charlie.st.Cloud.2010.1080p.MKV.AC3.DTS.NLSubs.mkv
Format                           : Matroska
File size                        : 8.38 GiB
Duration                         : 1h 39mn
Overall bit rate                 : 12.1 Mbps
Encoded date                     : UTC 2010-10-31 21:38:39
Writing application              : mkvmerge v4.3.0 ('Escape from the Island') built on Sep  5 2010 10:30:51
Writing library                  : libebml v1.0.0 + libmatroska v1.0.0

Video
ID                               : 1
Format                           : AVC
Format/Info                      : Advanced Video Codec
Format profile                   : High@L4.1
Format settings, CABAC           : Yes
Format settings, ReFrames        : 5 frames
Muxing mode                      : Container profile=Unknown@4.1
Codec ID                         : V_MPEG4/ISO/AVC
Duration                         : 1h 39mn
Bit rate                         : 9 937 Kbps
Width                            : 1 920 pixels
Height                           : 800 pixels
Display aspect ratio             : 2.40:1
Frame rate                       : 23.976 fps
Color space                      : YUV
Chroma subsampling               : 4:2:0
Bit depth                        : 8 bits
Scan type                        : Progressive
Bits/(Pixel*Frame)               : 0.270
Stream size                      : 6.72 GiB (80%)
Writing library                  : x264 core 107 r1745kMod 4785e8e
Encoding settings                : cabac=1 / ref=5 / deblock=1:0:0 / analyse=0x3:0x133 / 
me=umh / subme=7 / psy=1 / psy_rd=1.00:0.00 / mixed_ref=1 / me_range=16 / chroma_me=1 / 
trellis=1 / 8x8dct=1 / cqm=0 / deadzone=21,11 / fast_pskip=1 / chroma_qp_offset=-2 / 
threads=12 / sliced_threads=0 / nr=0 / decimate=1 / interlaced=0 / constrained_intra=0 / 
bframes=3 / b_pyramid=2 / b_adapt=2 / b_bias=0 / direct=3 / weightb=1 / open_gop=0 / 
weightp=2 / keyint=250 / keyint_min=23 / scenecut=40 / intra_refresh=0 / rc_lookahead=40 / 
rc=2pass / mbtree=1 / bitrate=9937 / ratetol=1.0 / qcomp=0.60 / qpmin=10 / qpmax=51 / 
qpstep=4 / cplxblur=20.0 / qblur=0.5 / ip_ratio=1.40 / aq=1:1.00
Language                         : English

Audio #1
ID                               : 2
Format                           : DTS
Format/Info                      : Digital Theater Systems
Muxing mode                      : Header stripping
Codec ID                         : A_DTS
Duration                         : 1h 39mn
Bit rate mode                    : Constant
Bit rate                         : 1 510 Kbps
Channel(s)                       : 6 channels
Channel positions                : Front: L C R, Side: L R, LFE
Sampling rate                    : 48.0 KHz
Bit depth                        : 24 bits
Stream size                      : 1.05 GiB (13%)
Title                            : DTS
Language                         : English

Audio #2
ID                               : 3
Format                           : AC-3
Format/Info                      : Audio Coding 3
Mode extension                   : CM (complete main)
Muxing mode                      : Header stripping
Codec ID                         : A_AC3
Duration                         : 1h 39mn
Bit rate mode                    : Constant
Bit rate                         : 640 Kbps
Channel(s)                       : 6 channels
Channel positions                : Front: L C R, Side: L R, LFE
Sampling rate                    : 48.0 KHz
Bit depth                        : 16 bits
Stream size                      : 455 MiB (5%)
Title                            : AC3 640
Language                         : English

Text
ID                               : 4
Format                           : UTF-8
Codec ID                         : S_TEXT/UTF8
Codec ID/Info                    : UTF-8 Plain Text
Title                            : Nederlands
Language                         : Dutch

